<?xml version="1.0" encoding="UTF-8"?>
<svg width="120px" height="117px" viewBox="0 0 120 117" version="1.1" xmlns="http://www.w3.org/2000/svg" xmlns:xlink="http://www.w3.org/1999/xlink">
    <defs>
        <filter x="0.0%" y="0.0%" width="100.0%" height="100.0%" filterUnits="objectBoundingBox" id="filter-1">
            <feGaussianBlur stdDeviation="0" in="SourceGraphic"></feGaussianBlur>
        </filter>
        <linearGradient x1="10.1915903%" y1="100.848225%" x2="88.9755615%" y2="-0.179724513%" id="linearGradient-2">
            <stop stop-color="#424242" offset="0%"></stop>
            <stop stop-color="#444444" offset="19.255354%"></stop>
            <stop stop-color="#757475" offset="74.295236%"></stop>
            <stop stop-color="#B2B2B2" offset="100%"></stop>
        </linearGradient>
        <radialGradient cx="64.9026947%" cy="50.0000323%" fx="64.9026947%" fy="50.0000323%" r="43.0844441%" gradientTransform="translate(0.649027,0.500000),scale(1.000000,0.774510),translate(-0.649027,-0.500000)" id="radialGradient-3">
            <stop stop-color="#6E6E6E" stop-opacity="0.6" offset="0%"></stop>
            <stop stop-color="#908D8D" stop-opacity="0.436" offset="45.97%"></stop>
            <stop stop-color="#BBBBBB" stop-opacity="0.171" offset="77.4776005%"></stop>
            <stop stop-color="#FFC8E3" stop-opacity="0" offset="100%"></stop>
        </radialGradient>
        <linearGradient x1="10.3610866%" y1="80.3006957%" x2="74.8265866%" y2="30.255789%" id="linearGradient-4">
            <stop stop-color="#292929" offset="0%"></stop>
            <stop stop-color="#6D6D6D" stop-opacity="0.594" offset="50.9588068%"></stop>
            <stop stop-color="#9B9B9B" stop-opacity="0.3" offset="100%"></stop>
        </linearGradient>
        <radialGradient cx="56.7656401%" cy="50.001626%" fx="56.7656401%" fy="50.001626%" r="43.6865603%" id="radialGradient-5">
            <stop stop-color="#E0E0E0" stop-opacity="0.3" offset="0%"></stop>
            <stop stop-color="#A6A6A6" stop-opacity="0.527" offset="41.0647946%"></stop>
            <stop stop-color="#606060" stop-opacity="0.968" offset="96.07%"></stop>
            <stop stop-color="#6A6A6A" offset="100%"></stop>
        </radialGradient>
        <linearGradient x1="13.5068549%" y1="13.6116202%" x2="102.206301%" y2="101.747348%" id="linearGradient-6">
            <stop stop-color="#606060" offset="2.78354458%"></stop>
            <stop stop-color="#BBBBBB" offset="22.49%"></stop>
            <stop stop-color="#ADADAD" offset="69.0477491%"></stop>
            <stop stop-color="#CFCDCE" offset="95.044799%"></stop>
        </linearGradient>
        <radialGradient cx="29.7182676%" cy="29.7181763%" fx="29.7182676%" fy="29.7181763%" r="69.9713783%" id="radialGradient-7">
            <stop stop-color="#515151" offset="0%"></stop>
            <stop stop-color="#A9A9A9" stop-opacity="0" offset="100%"></stop>
        </radialGradient>
        <linearGradient x1="-35.3801473%" y1="89.5039208%" x2="48.3618558%" y2="10.4310669%" id="linearGradient-8">
            <stop stop-color="#4E4E4E" offset="0%"></stop>
            <stop stop-color="#B7B7B7" offset="86.37%"></stop>
            <stop stop-color="#DADADA" offset="100%"></stop>
        </linearGradient>
        <linearGradient x1="-27.7515399%" y1="137.009723%" x2="62.3820796%" y2="11.0262077%" id="linearGradient-9">
            <stop stop-color="#828181" offset="0%"></stop>
            <stop stop-color="#B9B9B9" offset="87.262347%"></stop>
            <stop stop-color="#C8C8C8" offset="100%"></stop>
        </linearGradient>
        <radialGradient cx="63.0526941%" cy="76.2317275%" fx="63.0526941%" fy="76.2317275%" r="59.9045036%" gradientTransform="translate(0.630527,0.762317),scale(1.000000,0.720930),translate(-0.630527,-0.762317)" id="radialGradient-10">
            <stop stop-color="#3A3939" stop-opacity="0.6" offset="0%"></stop>
            <stop stop-color="#6C6C6C" stop-opacity="0.558" offset="13.4451486%"></stop>
            <stop stop-color="#A4A3A3" stop-opacity="0.399" offset="36.090472%"></stop>
            <stop stop-color="#A7A7A7" stop-opacity="0.156" offset="73.1479458%"></stop>
            <stop stop-color="#D1D1D1" stop-opacity="0" offset="100%"></stop>
        </radialGradient>
        <radialGradient cx="71.6723293%" cy="77.4281758%" fx="71.6723293%" fy="77.4281758%" r="69.7422482%" gradientTransform="translate(0.716723,0.774282),scale(1.000000,0.971429),translate(-0.716723,-0.774282)" id="radialGradient-11">
            <stop stop-color="#4A4A4A" offset="0%"></stop>
            <stop stop-color="#737272" stop-opacity="0.594" offset="61.1341783%"></stop>
            <stop stop-color="#666666" stop-opacity="0.3" offset="100%"></stop>
        </radialGradient>
        <linearGradient x1="10.8084884%" y1="36.636725%" x2="95.8583159%" y2="64.394673%" id="linearGradient-12">
            <stop stop-color="#383838" offset="0%"></stop>
            <stop stop-color="#5D5D5D" offset="100%"></stop>
        </linearGradient>
        <radialGradient cx="1.32413179%" cy="122.113174%" fx="1.32413179%" fy="122.113174%" r="354.105885%" gradientTransform="translate(0.013241,1.221132),scale(0.266667,1.000000),translate(-0.013241,-1.221132)" id="radialGradient-13">
            <stop stop-color="#787878" offset="0%"></stop>
            <stop stop-color="#999999" stop-opacity="0.594" offset="57.1186626%"></stop>
            <stop stop-color="#B0B0B0" stop-opacity="0.3" offset="100%"></stop>
        </radialGradient>
    </defs>
    <g id="other-page" stroke="none" stroke-width="1" fill="none" fill-rule="evenodd">
        <g transform="translate(-1038.000000, -718.000000)">
            <g transform="translate(1038.000000, 630.000000)">
                <g transform="translate(0.000000, 88.000000)">
                    <ellipse fill-opacity="0.2" fill="#000000" filter="url(#filter-1)" cx="60" cy="99.2" rx="60" ry="17.6"></ellipse>
                    <rect fill="#5F5F5F" x="4.8" y="45.6" width="11.2" height="3.2" rx="1.6"></rect>
                    <rect fill="#5F5F5F" x="104" y="56.8" width="11.2" height="4.8" rx="2.4"></rect>
                    <rect fill="#5F5F5F" x="31.2" y="0" width="8" height="4.8" rx="2.4"></rect>
                    <g id="list" transform="translate(27.200000, 13.600000)" fill-rule="nonzero">
                        <path d="M62.6397164,81.3907448 C62.5287312,84.8673916 59.553817,87.9248728 56.0507664,88.1242141 C39.7501846,89.025262 23.4498154,89.025262 7.14923363,88.1242141 C3.64597034,87.9246617 0.671056229,84.8673916 0.560283627,81.3907448 C-0.122211678,59.0774038 -0.181106133,36.764274 0.383175032,14.4509331 C0.475024868,10.974075 3.4544039,7.94679068 6.98211795,7.77616806 C23.3938976,7.00794398 39.8056772,7.00794398 56.2174568,7.77616806 C59.7453835,7.94700184 62.7247625,10.9742862 62.816825,14.4509331 C63.3811061,36.764274 63.3222117,59.0774038 62.6397164,81.3907448 L62.6397164,81.3907448 Z" fill="url(#linearGradient-2)"></path>
                        <path d="M62.6397164,81.3907448 C62.5287312,84.8673916 59.553817,87.9248728 56.0507664,88.1242141 C39.7501846,89.025262 23.4498154,89.025262 7.14923363,88.1242141 C3.64597034,87.9246617 0.671056229,84.8673916 0.560283627,81.3907448 C-0.122211678,59.0774038 -0.181106133,36.764274 0.383175032,14.4509331 C0.475024868,10.974075 3.4544039,7.94679068 6.98211795,7.77616806 C23.3938976,7.00794398 39.8056772,7.00794398 56.2174568,7.77616806 C59.7453835,7.94700184 62.7247625,10.9742862 62.816825,14.4509331 C63.3811061,36.764274 63.3222117,59.0774038 62.6397164,81.3907448 L62.6397164,81.3907448 Z" fill="url(#radialGradient-3)"></path>
                        <path d="M0,45.6 C0.0133828489,57.4998819 0.199893028,69.3995499 0.55889326,81.2994318 C0.669779722,84.8189255 3.64225915,87.9140876 7.14198034,88.1158856 C23.4280577,89.0280381 39.7139226,89.0280381 56,88.1158856 C51.6435641,87.7815508 47.2782062,87.3717555 42.9041389,86.8941955 C21.7632738,84.5006234 4.00274637,66.6543278 0,45.6 Z" fill="url(#linearGradient-4)" opacity="0.6"></path>
                        <path d="M31.6,13.6 C27.8195231,13.598452 24.7727193,10.5916358 24.8001842,6.84113171 C24.8283245,3.09195447 27.8751282,0.000221138211 31.6,0 C35.3246467,0 38.3716755,3.09173333 38.3998158,6.84113171 C38.4272807,10.592078 35.3802518,13.598452 31.6,13.6 Z" fill="url(#radialGradient-5)" opacity="0.6"></path>
                        <path d="M56.8,48 C56.7789176,59.2761312 56.6330271,70.5522623 56.3621178,81.8283935 C45.0412713,82.3585987 33.7206357,82.5199018 22.4,82.3125122 C33.614591,71.0950366 45.255258,59.3173996 56.8,48 Z" fill="url(#linearGradient-6)"></path>
                        <path d="M56.8,48 C56.7789176,59.2761312 56.6330271,70.5522623 56.3621178,81.8283935 C45.0412713,82.3585987 33.7206357,82.5199018 22.4,82.3125122 C33.614591,71.0950366 45.255258,59.3173996 56.8,48 Z" fill="url(#radialGradient-7)"></path>
                        <path d="M53.6,53.8632937 C45.1806718,61.9951537 36.7551558,70.2988106 28.5191163,78.4 C27.2875191,69.0626601 26.0352246,59.7261492 24.8,50.4 C34.4065435,51.6081739 44.0081794,52.7867133 53.6,53.8632937 Z" fill="url(#linearGradient-8)"></path>
                        <path d="M7.50072832,14.0784499 C7.05785051,36.6885078 7.10413703,59.2983537 7.63958787,81.9084115 C12.5823567,82.1431048 17.5249151,82.3063513 22.4676839,82.3983629 C25.0980204,82.4477609 27.4756746,81.3760585 29.200689,79.6157529 C30.9246513,77.8556593 31.9995505,75.4065385 31.9999712,72.7078838 C31.9999712,68.7238223 31.9999712,64.7399728 31.9999712,60.7559113 C31.9993401,58.9555361 33.4449521,57.4964944 35.2282454,57.4928903 C39.1739606,57.484834 43.1196757,57.4617251 47.0651805,57.4239876 C49.7380164,57.3981225 52.1680586,56.2799903 53.9311541,54.5137485 C55.6940392,52.7462346 56.7925024,50.3291271 56.7973414,47.67245 C56.81796,36.4743793 56.7186543,25.2765206 56.4992142,14.0784499 C40.1663856,13.4405167 23.8335569,13.4405167 7.50072832,14.0784499 L7.50072832,14.0784499 Z"  fill="url(#linearGradient-9)"></path>
                        <path d="M7.50072832,14.0784499 C7.05785051,36.6885078 7.10413703,59.2983537 7.63958787,81.9084115 C12.5823567,82.1431048 17.5249151,82.3063513 22.4676839,82.3983629 C25.0980204,82.4477609 27.4756746,81.3760585 29.200689,79.6157529 C30.9246513,77.8556593 31.9995505,75.4065385 31.9999712,72.7078838 C31.9999712,68.7238223 31.9999712,64.7399728 31.9999712,60.7559113 C31.9993401,58.9555361 33.4449521,57.4964944 35.2282454,57.4928903 C39.1739606,57.484834 43.1196757,57.4617251 47.0651805,57.4239876 C49.7380164,57.3981225 52.1680586,56.2799903 53.9311541,54.5137485 C55.6940392,52.7462346 56.7925024,50.3291271 56.7973414,47.67245 C56.81796,36.4743793 56.7186543,25.2765206 56.4992142,14.0784499 C40.1663856,13.4405167 23.8335569,13.4405167 7.50072832,14.0784499 L7.50072832,14.0784499 Z" fill="url(#radialGradient-10)"></path>
                        <path d="M34.749909,52.8954258 C30.3555795,52.1496747 26.6960898,55.8869352 27.2569728,60.1944516 C27.2569728,60.1936218 28.8430501,73.2194765 29.0494107,75.8709899 C29.1905375,77.6734464 28.6349841,79.3636772 27.715315,80.8 C28.3452691,80.4166487 28.9283231,79.9633897 29.4510464,79.4485206 C31.1978633,77.7263439 32.2870124,75.3299832 32.2874387,72.6894643 C32.2874387,68.7912294 32.2874387,64.893202 32.2874387,60.9949671 C32.2867992,59.2333765 33.7515757,57.8057663 35.55851,57.8022398 C39.5565334,57.794357 43.5545568,57.7717459 47.552367,57.7348214 C50.2064883,57.7099284 52.6229112,56.6569569 54.4,54.9883 C53.291025,55.4336762 52.088676,55.6714038 50.8351633,55.5927836 C48.1194323,55.4430111 34.752254,52.9084946 34.749909,52.8954258 Z" fill="url(#radialGradient-11)" opacity="0.6"></path>
                        <path d="M48.6719112,10.1563863 C47.1166217,10.1110395 45.5615452,10.0719253 44.0062557,10.0392584 C42.616912,10.0100302 41.3760462,9.08224829 40.9269912,7.72829282 C40.7734008,7.265369 40.6198103,6.80244517 40.4664329,6.33952135 C39.2174722,2.58261729 35.8127067,-0.00128851678 32.000213,4.8213095e-07 C28.1875063,-0.00128851678 24.7829539,2.58218747 23.5337801,6.33909152 C23.3804027,6.80201535 23.2268123,7.26493917 23.0732218,7.72786299 C22.6243799,9.08203337 21.383088,10.0096003 19.9939574,10.0388286 C18.4388809,10.0714954 16.8835913,10.1106097 15.3283018,10.1559565 C14.4372217,10.181961 13.7037794,10.9393164 13.6895068,11.8436727 C13.6564881,14.0280542 13.6268777,16.2124357 13.6001234,18.3968172 C13.5891724,19.3013884 14.3083421,20.0181251 15.206239,19.9996426 C26.4019376,19.767321 37.5978493,19.767321 48.793761,19.9996426 C49.6916579,20.01834 50.4108276,19.3011735 50.3998766,18.3968172 C50.3733353,16.2124357 50.3435119,14.0280542 50.3104932,11.8436727 C50.2968596,10.9393164 49.5627783,10.1826057 48.6719112,10.1563863 L48.6719112,10.1563863 Z M32.000213,9.91288922 C30.2172007,9.91267431 28.7763051,8.44288043 28.7830978,6.61847916 C28.7899387,4.79429281 30.2304082,3.30386722 32.000213,3.30429696 C33.7702309,3.30429696 35.2104874,4.79429281 35.2173268,6.61847916 C35.2239079,8.44309534 33.7832254,9.91267431 32.000213,9.91288922 L32.000213,9.91288922 Z" fill="url(#linearGradient-12)"></path>
                        <path d="M18.5403305,10.4 C16.9496238,10.4314825 15.3586993,10.4691786 13.7677747,10.5128812 C12.856278,10.5379429 12.106031,11.2678387 12.0914314,12.1394056 C12.0576561,14.2445876 12.0273673,16.3497696 12,18.4549516 C11.9887981,19.3267256 12.7244455,20.0174755 13.6429151,19.9996631 C25.0951315,19.7757649 36.5475657,19.7757649 48,19.9996631 C37.4520895,19.8010337 26.8512281,16.27707 18.5403305,10.4 L18.5403305,10.4 Z" fill="url(#radialGradient-13)" opacity="0.6"></path>
                    </g>
                </g>
            </g>
        </g>
    </g>
</svg>